HIERARCHY
ROOT Hips
{
	OFFSET 0.00000 0.00000 0.00000
	CHANNELS 6 Xposition Yposition Zposition Yrotation Zrotation Xrotation 
	JOINT Lumbar
	{
		OFFSET 0 0 0
		CHANNELS 3 Zrotation Xrotation Yrotation
		JOINT Neck
		{
			OFFSET 0.00 0.2701 0.00
			CHANNELS 3 Zrotation Xrotation Yrotation
			End Site
			{
				OFFSET 0.00 0.1379 0.00
			}
		}
		JOINT RightShoulder
		{
			OFFSET 0.0119 0.2289 0.1181
			CHANNELS 3 Zrotation Xrotation Yrotation
			JOINT RightElbow
			{
				OFFSET 0.00 -0.1475 0.00
				CHANNELS 2 Zrotation Yrotation
				JOINT RightWrist
				{
					OFFSET 0.00 -0.1605 0.00
					CHANNELS 2 Zrotation Xrotation
					End Site
					{
						OFFSET 0.0040 -0.1068 0.0006
					}
				}
			}
		}
		JOINT LeftShoulder
		{
			OFFSET 0.0119 0.2289 -0.1181
			CHANNELS 3 Zrotation Xrotation Yrotation
			JOINT LeftElbow
			{
				OFFSET 0.00 -0.1475 0.00
				CHANNELS 2 Zrotation Yrotation
				JOINT LeftWrist
				{
					OFFSET 0.00 -0.1605 0.00
					CHANNELS 2 Zrotation Xrotation
					End Site
					{
						OFFSET 0.0040 -0.1068 -0.0006
					}
				}
			}
		}
	}
	JOINT RightHip
	{
		OFFSET 0.0316 -0.0424 0.0458
		CHANNELS 3 Zrotation Xrotation Yrotation
		JOINT RightKnee
		{
			OFFSET 0.00 -0.2438 0.00
			CHANNELS 1 Zrotation
			JOINT RightAnkle
			{
				OFFSET 0.00 -0.2449 0.00
				CHANNELS 3 Zrotation Xrotation Yrotation
				End Site
				{
					OFFSET 0.1237 -0.0542 0.0051
				}
			}
		}
	}
	JOINT LeftHip
	{
		OFFSET 0.0316 -0.0424 -0.0458
		CHANNELS 3 Zrotation Xrotation Yrotation
		JOINT LeftKnee
		{
			OFFSET 0.00 -0.2438 0.00
			CHANNELS 1 Zrotation
			JOINT LeftAnkle
			{
				OFFSET 0.00 -0.2449 0.00
				CHANNELS 3 Zrotation Xrotation Yrotation
				End Site
				{
					OFFSET 0.1237 -0.0542 -0.0051
				}
			}
		}
	}
}
MOTION
Frames: 22
Frame Time: 0.02
-0.00027 -0.00014 -0.00011 27.85469 -17.72291 -3.57345 43.38128 -0.69559 -7.21153 -13.97593 2.50293 -0.39473 -22.23478 -1.33207 -25.65124 25.92984 151.3566 22.11975 9.69753 -25.99192 9.00766 -5.36065 30.4277 -76.33993 5.95118 3.40476 29.64466 -2.73018 -7.07495 -20.2349 -6.48991 -4.24323 -2.88516 33.46478 4.78629 12.76598 -24.31542 -6.95244 1.48551 1.44709
-0.0001 -0.0001 7e-05 27.78798 -17.73887 -3.56846 43.39908 -0.69347 -7.22105 -13.94433 2.51707 -0.39491 -22.38074 -1.78719 -23.78403 26.06522 145.81654 20.67046 8.84583 -26.13282 8.69908 -4.32909 30.70728 -82.46006 7.81365 2.41747 29.67051 -2.69061 -6.96719 -20.23517 -6.48926 -4.24333 -2.88421 33.49643 4.63114 11.93044 -24.31874 -6.94833 1.61001 1.50895
7e-05 -6e-05 0.00026 27.7214 -17.75478 -3.56348 43.41691 -0.69135 -7.23052 -13.9129 2.53119 -0.39509 -22.52647 -2.24097 -21.92238 26.20047 140.29384 19.22576 7.99678 -26.27394 8.39206 -3.3025 30.98687 -88.55357 9.66803 1.43449 29.69626 -2.65113 -6.85976 -20.23543 -6.4886 -4.24343 -2.88325 33.52794 4.47644 11.09717 -24.32205 -6.94424 1.73418 1.57064
0.00024 -3e-05 0.00044 27.65488 -17.7707 -3.5585 43.43467 -0.68924 -7.24001 -13.8814 2.54528 -0.39527 -22.67203 -2.69472 -20.06081 26.3355 134.77064 17.78089 7.14767 -26.41453 8.08455 -2.27447 31.26578 -94.65333 11.5243 0.45049 29.72204 -2.61168 -6.75234 -20.2357 -6.48795 -4.24352 -2.8823 33.5595 4.32177 10.26417 -24.32537 -6.94014 1.85831 1.63231
0.00041 1e-05 0.00063 27.58827 -17.78666 -3.55352 43.45238 -0.68711 -7.24955 -13.84972 2.55939 -0.39545 -22.81771 -3.14972 -18.19397 26.47049 129.23066 16.33157 6.29601 -26.55459 7.77519 -1.24063 31.54425 -100.78332 13.38975 -0.53841 29.74792 -2.57213 -6.64457 -20.23597 -6.4873 -4.24363 -2.88135 33.59118 4.16666 9.42897 -24.32869 -6.93603 1.98275 1.69414
0.00058 4e-05 0.00082 27.52175 -17.80243 -3.54855 43.47047 -0.68503 -7.25886 -13.81886 2.57354 -0.39563 -22.96351 -3.60088 -16.3435 26.60624 123.745 14.89676 5.45255 -26.69792 7.47305 -0.22923 31.8261 -106.80026 15.22093 -1.50895 29.77339 -2.53279 -6.53787 -20.23621 -6.48665 -4.2437 -2.88038 33.62232 4.01283 8.59979 -24.33198 -6.93198 2.10633 1.75556
0.00075 8e-05 0.001 27.45512 -17.81862 -3.54355 43.48775 -0.68284 -7.26864 -13.78632 2.58758 -0.39581 -23.10897 -4.0594 -14.46162 26.74047 118.15458 13.43393 4.59329 -26.83462 7.15691 0.82565 32.10111 -113.03567 17.11828 -2.51499 29.79971 -2.4931 -6.42916 -20.2365 -6.486 -4.24384 -2.87945 33.65459 3.85663 7.75955 -24.33534 -6.92781 2.2315 1.81771
0.00092 0.00011 0.00119 27.38861 -17.83432 -3.53858 43.50579 -0.68076 -7.27795 -13.75545 2.60173 -0.39599 -23.25464 -4.51092 -12.60962 26.87583 112.66349 11.99768 3.74902 -26.97725 6.85336 1.84146 32.38193 -119.07395 18.95601 -3.48898 29.82512 -2.45371 -6.32225 -20.23676 -6.48534 -4.24393 -2.87849 33.68569 3.70256 6.92926 -24.33864 -6.92375 2.35524 1.87921
0.00109 0.00015 0.00138 27.32213 -17.84983 -3.53364 43.52474 -0.67878 -7.28686 -13.72613 2.61598 -0.39618 -23.4011 -4.95491 -10.78971 27.01376 107.28074 10.5904 2.92106 -27.12802 6.56646 2.80555 32.67214 -124.85524 20.71566 -4.42123 29.84994 -2.41474 -6.21774 -20.23696 -6.48468 -4.24391 -2.87748 33.71587 3.55122 6.11173 -24.34185 -6.91983 2.47715 1.93985
0.00125 0.00018 0.00157 27.25511 -17.86765 -3.5285 43.53842 -0.67614 -7.29858 -13.6864 2.62958 -0.39634 -23.54459 -5.44532 -8.77177 27.14046 101.23518 9.00581 1.99318 -27.23468 6.18755 4.05532 32.91523 -132.06699 22.90893 -5.58596 29.87971 -2.3735 -6.1 -20.23744 -6.48407 -4.24436 -2.8767 33.75289 3.38453 5.22254 -24.34553 -6.91511 2.60934 2.00528
0.00143 0.00022 0.00174 27.18947 -17.87984 -3.52381 43.56321 -0.67494 -7.30407 -13.66957 2.64459 -0.39655 -23.69333 -5.83579 -7.18035 27.28854 96.61363 7.80222 1.28006 -27.43257 6.00027 4.71008 33.25317 -136.2919 24.19742 -6.26517 29.89804 -2.33697 -6.00979 -20.23736 -6.48335 -4.24391 -2.87547 33.77447 3.25002 4.48351 -24.34823 -6.91207 2.71998 2.06066
0.00169 0.00026 0.00188 27.12594 -17.88284 -3.52021 43.61906 -0.67749 -7.29469 -13.70858 2.66321 -0.39691 -23.86394 -5.96717 -6.69523 27.51434 95.71162 7.5933 1.12732 -27.89744 6.3651 3.65174 33.89121 -131.98032 22.89476 -5.55753 29.89319 -2.31431 -5.99919 -20.23551 -6.48228 -4.2403 -2.87261 33.76166 3.2066 4.16953 -24.34806 -6.91381 2.76986 2.08766
0.00197 0.00031 0.00201 27.06423 -17.87917 -3.51708 43.68601 -0.68155 -7.27871 -13.7718 2.68325 -0.39732 -24.03774 -5.99628 -6.64768 27.75751 96.26384 7.77348 1.19402 -28.45008 6.91773 2.01052 34.61663 -124.73104 20.70318 -4.37221 29.87551 -2.29624 -6.01551 -20.23317 -6.48111 -4.23592 -2.86938 33.73205 3.19511 4.00449 -24.34693 -6.91719 2.79833 2.10466
0.00224 0.00036 0.00214 27.00265 -17.8743 -3.51381 43.74743 -0.68499 -7.26419 -13.82863 2.70287 -0.3977 -24.20608 -6.06121 -6.44507 27.98103 96.28675 7.81251 1.18118 -28.95265 7.36699 0.68887 35.27675 -119.05022 18.98972 -3.44139 29.85809 -2.27544 -6.01681 -20.2312 -6.48002 -4.23234 -2.86658 33.70467 3.16705 3.76205 -24.34636 -6.91973 2.83779 2.12683
0.00248 0.0004 0.00228 26.93659 -17.88671 -3.51025 43.81073 -0.68803 -7.25586 -13.8664 2.72175 -0.39807 -24.39421 -6.16734 -6.06915 28.25658 95.8003 7.71366 1.09001 -29.50151 7.89178 -0.86355 36.0472 -112.38436 16.96334 -2.35266 29.86343 -2.25726 -6.02976 -20.22855 -6.47881 -4.22685 -2.86266 33.69928 3.14722 3.5585 -24.34528 -6.92272 2.87226 2.14654
0.0028 0.00045 0.00238 26.88086 -17.86224 -3.50738 43.87297 -0.69242 -7.23346 -13.94913 2.74226 -0.3985 -24.5383 -6.16792 -6.14451 28.42492 96.66532 7.97923 1.20596 -29.97083 8.30494 -2.07502 36.60591 -107.06604 15.37563 -1.47835 29.81924 -2.23482 -6.02502 -20.22727 -6.47783 -4.22518 -2.861 33.64507 3.11847 3.31228 -24.34501 -6.9251 2.91157 2.16873
0.00335 0.0005 0.00236 26.84881 -17.73233 -3.50653 43.9267 -0.6988 -7.17045 -14.15296 2.76895 -0.39907 -24.58911 -5.86326 -7.4721 28.32193 101.37537 9.28575 1.90983 -30.23049 8.35412 -2.18857 36.58403 -106.26567 15.23988 -1.32559 29.63464 -2.19857 -5.964 -20.2293 -6.4775 -4.23403 -2.86552 33.45325 3.05181 2.88623 -24.34775 -6.92594 2.97338 2.20257
0.00397 0.00055 0.00229 26.82827 -17.56695 -3.50636 43.97879 -0.70673 -7.09418 -14.39971 2.79685 -0.39973 -24.58915 -5.46281 -9.21706 28.10764 107.3139 10.92305 2.80246 -30.4 8.28712 -1.94267 36.34372 -106.90846 15.57145 -1.40293 29.40264 -2.1581 -5.88509 -20.23287 -6.4774 -4.24677 -2.87233 33.2151 2.97624 2.41741 -24.35139 -6.92604 3.03992 2.23874
0.00455 0.0006 0.00225 26.8049 -17.42069 -3.50566 44.03448 -0.71486 -7.02615 -14.6261 2.82289 -0.40034 -24.59446 -5.13221 -10.69711 27.92199 112.37351 12.32129 3.56166 -30.59162 8.27851 -1.86841 36.18349 -106.8413 15.67518 -1.36678 29.19584 -2.12006 -5.814 -20.23602 -6.47721 -4.25792 -2.87821 33.00155 2.90814 1.98419 -24.35406 -6.92607 3.10193 2.27238
0.00517 0.00066 0.00218 26.76997 -17.25973 -3.50567 44.08156 -0.71925 -6.94839 -14.86079 2.85454 -0.4009 -24.67869 -4.68853 -12.51176 27.8189 118.81031 14.10024 4.52571 -30.87076 8.2492 -1.77373 36.09714 -106.90313 15.81642 -1.35149 28.97011 -2.07974 -5.74225 -20.23775 -6.47698 -4.26842 -2.88368 32.7687 2.82611 1.48559 -24.3584 -6.92771 3.17385 2.31217
0.00571 0.0007 0.00217 26.76368 -17.12333 -3.50466 44.14219 -0.73174 -6.88801 -15.08327 2.87471 -0.40167 -24.5819 -4.45694 -13.72081 27.53061 122.68558 15.16914 5.11006 -30.939 8.23753 -1.63592 35.81669 -107.07328 15.99801 -1.35373 28.77651 -2.04347 -5.67093 -20.24308 -6.47688 -4.28107 -2.89046 32.56995 2.77133 1.114 -24.36029 -6.926 3.22578 2.33945
0.0061 0.00072 0.00225 26.81811 -17.04467 -3.49806 44.27352 -0.76644 -6.87721 -15.30234 2.86335 -0.40216 -24.03596 -4.85313 -13.16954 26.64859 118.88248 14.1119 4.55493 -30.4975 8.26329 -1.40145 34.94863 -107.23791 16.21561 -1.34943 28.65209 -2.01597 -5.57236 -20.25594 -6.47727 -4.29997 -2.90106 32.43832 2.78687 1.07639 -24.34925 -6.91353 3.22812 2.33508
